STARTFONT 2.1
FONT -Fondu--Medium-R-Normal--11-110-75-75-P-51-MacRoman-1
SIZE 11 75 75
FONTBOUNDINGBOX 9 11 -1 -2
COMMENT Created by Fondu from a mac NFNT/FONT resource
STARTPROPERTIES 17
FOUNDRY "Fondu"
FAMILY_NAME ""
WEIGHT_NAME "Medium"
SLANT "R"
SETWIDTH_NAME "Normal"
ADD_STYLE_NAME ""
PIXEL_SIZE 11
POINT_SIZE 110
RESOLUTION_X 75
RESOLUTION_Y 75
SPACING "P"
AVERAGE_WIDTH 51
CHARSET_REGISTRY "MacRoman"
CHARSET_ENCODING "1"
FONT_ASCENT 9
FONT_DESCENT 2
FACE_NAME "nameless"
ENDPROPERTIES
CHARS 223
STARTCHAR space
ENCODING 32
SWIDTH 181 0
DWIDTH 2 0
BBX 0 0 0 -2
BITMAP
ENDCHAR
STARTCHAR exclam
ENCODING 33
SWIDTH 272 0
DWIDTH 3 0
BBX 2 7 0 0
BITMAP
C0
C0
C0
C0
00
C0
C0
ENDCHAR
STARTCHAR quotedbl
ENCODING 34
SWIDTH 363 0
DWIDTH 4 0
BBX 3 3 0 4
BITMAP
A0
A0
A0
ENDCHAR
STARTCHAR numbersign
ENCODING 35
SWIDTH 454 0
DWIDTH 5 0
BBX 5 7 0 0
BITMAP
30
30
78
50
F0
50
60
ENDCHAR
STARTCHAR dollar
ENCODING 36
SWIDTH 454 0
DWIDTH 5 0
BBX 5 9 0 -1
BITMAP
20
70
A8
A0
70
28
A8
70
20
ENDCHAR
STARTCHAR percent
ENCODING 37
SWIDTH 636 0
DWIDTH 7 0
BBX 7 7 0 0
BITMAP
44
A8
A8
54
1A
2A
24
ENDCHAR
STARTCHAR ampersand
ENCODING 38
SWIDTH 545 0
DWIDTH 6 0
BBX 5 7 0 0
BITMAP
20
50
30
68
D8
D0
78
ENDCHAR
STARTCHAR quotesingle
ENCODING 39
SWIDTH 181 0
DWIDTH 2 0
BBX 1 3 0 4
BITMAP
80
80
80
ENDCHAR
STARTCHAR parenleft
ENCODING 40
SWIDTH 272 0
DWIDTH 3 0
BBX 2 9 0 -2
BITMAP
40
40
80
80
80
80
80
40
40
ENDCHAR
STARTCHAR parenright
ENCODING 41
SWIDTH 272 0
DWIDTH 3 0
BBX 2 9 0 -2
BITMAP
80
40
40
40
40
40
40
40
80
ENDCHAR
STARTCHAR asterisk
ENCODING 42
SWIDTH 272 0
DWIDTH 3 0
BBX 3 3 0 4
BITMAP
40
E0
A0
ENDCHAR
STARTCHAR plus
ENCODING 43
SWIDTH 454 0
DWIDTH 5 0
BBX 5 5 0 0
BITMAP
20
20
F8
20
20
ENDCHAR
STARTCHAR comma
ENCODING 44
SWIDTH 181 0
DWIDTH 2 0
BBX 2 3 -1 -2
BITMAP
40
40
80
ENDCHAR
STARTCHAR hyphen
ENCODING 45
SWIDTH 272 0
DWIDTH 3 0
BBX 2 1 0 2
BITMAP
C0
ENDCHAR
STARTCHAR period
ENCODING 46
SWIDTH 181 0
DWIDTH 2 0
BBX 1 2 0 0
BITMAP
80
80
ENDCHAR
STARTCHAR slash
ENCODING 47
SWIDTH 181 0
DWIDTH 2 0
BBX 3 7 -1 0
BITMAP
20
20
40
40
40
80
80
ENDCHAR
STARTCHAR zero
ENCODING 48
SWIDTH 454 0
DWIDTH 5 0
BBX 5 7 0 0
BITMAP
70
D8
D8
D8
D8
D8
70
ENDCHAR
STARTCHAR one
ENCODING 49
SWIDTH 454 0
DWIDTH 5 0
BBX 3 7 1 0
BITMAP
60
E0
60
60
60
60
60
ENDCHAR
STARTCHAR two
ENCODING 50
SWIDTH 454 0
DWIDTH 5 0
BBX 4 7 0 0
BITMAP
60
B0
B0
20
40
F0
F0
ENDCHAR
STARTCHAR three
ENCODING 51
SWIDTH 454 0
DWIDTH 5 0
BBX 4 7 0 0
BITMAP
60
B0
30
60
30
B0
60
ENDCHAR
STARTCHAR four
ENCODING 52
SWIDTH 454 0
DWIDTH 5 0
BBX 5 7 0 0
BITMAP
10
30
70
B0
F8
30
30
ENDCHAR
STARTCHAR five
ENCODING 53
SWIDTH 454 0
DWIDTH 5 0
BBX 4 7 0 0
BITMAP
F0
F0
80
E0
30
B0
60
ENDCHAR
STARTCHAR six
ENCODING 54
SWIDTH 454 0
DWIDTH 5 0
BBX 5 7 0 0
BITMAP
70
C0
F0
D8
D8
D8
70
ENDCHAR
STARTCHAR seven
ENCODING 55
SWIDTH 454 0
DWIDTH 5 0
BBX 5 7 0 0
BITMAP
F8
18
30
30
20
60
60
ENDCHAR
STARTCHAR eight
ENCODING 56
SWIDTH 454 0
DWIDTH 5 0
BBX 5 7 0 0
BITMAP
70
D8
D8
70
D8
D8
70
ENDCHAR
STARTCHAR nine
ENCODING 57
SWIDTH 454 0
DWIDTH 5 0
BBX 5 7 0 0
BITMAP
70
D8
D8
D8
78
18
70
ENDCHAR
STARTCHAR colon
ENCODING 58
SWIDTH 272 0
DWIDTH 3 0
BBX 1 5 1 0
BITMAP
80
80
00
80
80
ENDCHAR
STARTCHAR semicolon
ENCODING 59
SWIDTH 272 0
DWIDTH 3 0
BBX 2 6 0 -1
BITMAP
40
40
00
40
40
80
ENDCHAR
STARTCHAR less
ENCODING 60
SWIDTH 454 0
DWIDTH 5 0
BBX 5 5 0 0
BITMAP
18
70
C0
70
18
ENDCHAR
STARTCHAR equal
ENCODING 61
SWIDTH 454 0
DWIDTH 5 0
BBX 5 3 0 1
BITMAP
F8
00
F8
ENDCHAR
STARTCHAR greater
ENCODING 62
SWIDTH 454 0
DWIDTH 5 0
BBX 5 5 0 0
BITMAP
C0
70
18
70
C0
ENDCHAR
STARTCHAR question
ENCODING 63
SWIDTH 454 0
DWIDTH 5 0
BBX 4 7 0 0
BITMAP
60
B0
30
60
40
00
40
ENDCHAR
STARTCHAR at
ENCODING 64
SWIDTH 727 0
DWIDTH 8 0
BBX 8 8 0 -1
BITMAP
1C
62
5D
A5
A5
9E
40
3C
ENDCHAR
STARTCHAR A
ENCODING 65
SWIDTH 545 0
DWIDTH 6 0
BBX 5 7 0 0
BITMAP
20
70
70
50
F8
D8
D8
ENDCHAR
STARTCHAR B
ENCODING 66
SWIDTH 545 0
DWIDTH 6 0
BBX 5 7 0 0
BITMAP
F0
D8
D8
F0
D8
D8
F0
ENDCHAR
STARTCHAR C
ENCODING 67
SWIDTH 545 0
DWIDTH 6 0
BBX 5 7 0 0
BITMAP
70
C8
C0
C0
C0
C8
70
ENDCHAR
STARTCHAR D
ENCODING 68
SWIDTH 545 0
DWIDTH 6 0
BBX 5 7 0 0
BITMAP
F0
D8
D8
D8
D8
D8
F0
ENDCHAR
STARTCHAR E
ENCODING 69
SWIDTH 454 0
DWIDTH 5 0
BBX 4 7 0 0
BITMAP
F0
C0
C0
F0
C0
C0
F0
ENDCHAR
STARTCHAR F
ENCODING 70
SWIDTH 454 0
DWIDTH 5 0
BBX 4 7 0 0
BITMAP
F0
C0
C0
F0
C0
C0
C0
ENDCHAR
STARTCHAR G
ENCODING 71
SWIDTH 545 0
DWIDTH 6 0
BBX 5 7 0 0
BITMAP
70
C8
C0
D8
D8
D8
78
ENDCHAR
STARTCHAR H
ENCODING 72
SWIDTH 545 0
DWIDTH 6 0
BBX 5 7 0 0
BITMAP
D8
D8
D8
F8
D8
D8
D8
ENDCHAR
STARTCHAR I
ENCODING 73
SWIDTH 181 0
DWIDTH 2 0
BBX 2 7 0 0
BITMAP
C0
C0
C0
C0
C0
C0
C0
ENDCHAR
STARTCHAR J
ENCODING 74
SWIDTH 454 0
DWIDTH 5 0
BBX 4 7 0 0
BITMAP
30
30
30
30
B0
B0
60
ENDCHAR
STARTCHAR K
ENCODING 75
SWIDTH 545 0
DWIDTH 6 0
BBX 5 7 0 0
BITMAP
C8
D8
F0
E0
F0
D8
D8
ENDCHAR
STARTCHAR L
ENCODING 76
SWIDTH 454 0
DWIDTH 5 0
BBX 4 7 0 0
BITMAP
C0
C0
C0
C0
C0
C0
F0
ENDCHAR
STARTCHAR M
ENCODING 77
SWIDTH 636 0
DWIDTH 7 0
BBX 7 7 0 0
BITMAP
C6
C6
EE
EE
D6
D6
D6
ENDCHAR
STARTCHAR N
ENCODING 78
SWIDTH 545 0
DWIDTH 6 0
BBX 5 7 0 0
BITMAP
98
D8
F8
F8
D8
D8
C8
ENDCHAR
STARTCHAR O
ENCODING 79
SWIDTH 545 0
DWIDTH 6 0
BBX 5 7 0 0
BITMAP
70
D8
D8
D8
D8
D8
70
ENDCHAR
STARTCHAR P
ENCODING 80
SWIDTH 454 0
DWIDTH 5 0
BBX 5 7 0 0
BITMAP
F0
D8
D8
F0
C0
C0
C0
ENDCHAR
STARTCHAR Q
ENCODING 81
SWIDTH 545 0
DWIDTH 6 0
BBX 5 8 0 -1
BITMAP
70
D8
D8
D8
D8
D8
70
18
ENDCHAR
STARTCHAR R
ENCODING 82
SWIDTH 545 0
DWIDTH 6 0
BBX 5 7 0 0
BITMAP
F0
D8
D8
F0
F0
D8
D8
ENDCHAR
STARTCHAR S
ENCODING 83
SWIDTH 454 0
DWIDTH 5 0
BBX 4 7 0 0
BITMAP
60
D0
C0
60
30
B0
60
ENDCHAR
STARTCHAR T
ENCODING 84
SWIDTH 454 0
DWIDTH 5 0
BBX 4 7 0 0
BITMAP
F0
60
60
60
60
60
60
ENDCHAR
STARTCHAR U
ENCODING 85
SWIDTH 545 0
DWIDTH 6 0
BBX 5 7 0 0
BITMAP
D8
D8
D8
D8
D8
D8
70
ENDCHAR
STARTCHAR V
ENCODING 86
SWIDTH 454 0
DWIDTH 5 0
BBX 4 7 0 0
BITMAP
90
90
90
90
60
60
60
ENDCHAR
STARTCHAR W
ENCODING 87
SWIDTH 727 0
DWIDTH 8 0
BBX 7 7 0 0
BITMAP
92
92
AA
EE
6C
6C
6C
ENDCHAR
STARTCHAR X
ENCODING 88
SWIDTH 454 0
DWIDTH 5 0
BBX 4 7 0 0
BITMAP
90
F0
60
60
60
F0
90
ENDCHAR
STARTCHAR Y
ENCODING 89
SWIDTH 454 0
DWIDTH 5 0
BBX 5 7 -1 0
BITMAP
D8
D8
50
20
20
20
20
ENDCHAR
STARTCHAR Z
ENCODING 90
SWIDTH 454 0
DWIDTH 5 0
BBX 5 7 0 0
BITMAP
F8
18
30
20
60
C0
F8
ENDCHAR
STARTCHAR bracketleft
ENCODING 91
SWIDTH 272 0
DWIDTH 3 0
BBX 3 9 0 -2
BITMAP
E0
C0
C0
C0
C0
C0
C0
C0
E0
ENDCHAR
STARTCHAR backslash
ENCODING 92
SWIDTH 181 0
DWIDTH 2 0
BBX 2 7 0 0
BITMAP
80
80
80
40
40
40
40
ENDCHAR
STARTCHAR bracketright
ENCODING 93
SWIDTH 272 0
DWIDTH 3 0
BBX 3 9 -1 -2
BITMAP
E0
60
60
60
60
60
60
60
E0
ENDCHAR
STARTCHAR asciicircum
ENCODING 94
SWIDTH 454 0
DWIDTH 5 0
BBX 3 3 1 4
BITMAP
40
E0
A0
ENDCHAR
STARTCHAR underscore
ENCODING 95
SWIDTH 454 0
DWIDTH 5 0
BBX 6 1 -1 -2
BITMAP
FC
ENDCHAR
STARTCHAR grave
ENCODING 96
SWIDTH 272 0
DWIDTH 3 0
BBX 2 2 0 6
BITMAP
80
40
ENDCHAR
STARTCHAR a
ENCODING 97
SWIDTH 454 0
DWIDTH 5 0
BBX 5 5 0 0
BITMAP
70
18
78
D8
78
ENDCHAR
STARTCHAR b
ENCODING 98
SWIDTH 454 0
DWIDTH 5 0
BBX 5 7 0 0
BITMAP
C0
C0
F0
D8
D8
D8
F0
ENDCHAR
STARTCHAR c
ENCODING 99
SWIDTH 454 0
DWIDTH 5 0
BBX 4 5 0 0
BITMAP
60
D0
C0
D0
60
ENDCHAR
STARTCHAR d
ENCODING 100
SWIDTH 454 0
DWIDTH 5 0
BBX 5 7 0 0
BITMAP
18
18
78
D8
D8
D8
78
ENDCHAR
STARTCHAR e
ENCODING 101
SWIDTH 454 0
DWIDTH 5 0
BBX 5 5 0 0
BITMAP
70
D8
F8
C0
70
ENDCHAR
STARTCHAR f
ENCODING 102
SWIDTH 272 0
DWIDTH 3 0
BBX 4 7 -1 0
BITMAP
30
60
F0
60
60
60
60
ENDCHAR
STARTCHAR g
ENCODING 103
SWIDTH 454 0
DWIDTH 5 0
BBX 5 7 0 -2
BITMAP
78
D8
D8
D8
78
18
F0
ENDCHAR
STARTCHAR h
ENCODING 104
SWIDTH 454 0
DWIDTH 5 0
BBX 5 7 0 0
BITMAP
C0
C0
F0
D8
D8
D8
D8
ENDCHAR
STARTCHAR i
ENCODING 105
SWIDTH 181 0
DWIDTH 2 0
BBX 2 7 0 0
BITMAP
C0
00
C0
C0
C0
C0
C0
ENDCHAR
STARTCHAR j
ENCODING 106
SWIDTH 181 0
DWIDTH 2 0
BBX 3 9 -1 -2
BITMAP
60
00
60
60
60
60
60
60
C0
ENDCHAR
STARTCHAR k
ENCODING 107
SWIDTH 454 0
DWIDTH 5 0
BBX 5 7 0 0
BITMAP
C0
C0
D8
F0
E0
F0
D8
ENDCHAR
STARTCHAR l
ENCODING 108
SWIDTH 181 0
DWIDTH 2 0
BBX 2 7 0 0
BITMAP
C0
C0
C0
C0
C0
C0
C0
ENDCHAR
STARTCHAR m
ENCODING 109
SWIDTH 636 0
DWIDTH 7 0
BBX 7 5 0 0
BITMAP
EC
D6
D6
D6
D6
ENDCHAR
STARTCHAR n
ENCODING 110
SWIDTH 454 0
DWIDTH 5 0
BBX 5 5 0 0
BITMAP
F0
D8
D8
D8
D8
ENDCHAR
STARTCHAR o
ENCODING 111
SWIDTH 545 0
DWIDTH 6 0
BBX 5 5 0 0
BITMAP
70
D8
D8
D8
70
ENDCHAR
STARTCHAR p
ENCODING 112
SWIDTH 454 0
DWIDTH 5 0
BBX 5 7 0 -2
BITMAP
F0
D8
D8
D8
F0
C0
C0
ENDCHAR
STARTCHAR q
ENCODING 113
SWIDTH 454 0
DWIDTH 5 0
BBX 5 7 0 -2
BITMAP
78
D8
D8
D8
78
18
18
ENDCHAR
STARTCHAR r
ENCODING 114
SWIDTH 272 0
DWIDTH 3 0
BBX 3 5 0 0
BITMAP
A0
E0
C0
C0
C0
ENDCHAR
STARTCHAR s
ENCODING 115
SWIDTH 454 0
DWIDTH 5 0
BBX 4 5 0 0
BITMAP
70
C0
60
30
E0
ENDCHAR
STARTCHAR t
ENCODING 116
SWIDTH 272 0
DWIDTH 3 0
BBX 4 7 -1 0
BITMAP
60
60
F0
60
60
60
30
ENDCHAR
STARTCHAR u
ENCODING 117
SWIDTH 454 0
DWIDTH 5 0
BBX 5 5 0 0
BITMAP
D8
D8
D8
D8
78
ENDCHAR
STARTCHAR v
ENCODING 118
SWIDTH 454 0
DWIDTH 5 0
BBX 5 5 0 0
BITMAP
D8
D8
D8
70
20
ENDCHAR
STARTCHAR w
ENCODING 119
SWIDTH 545 0
DWIDTH 6 0
BBX 5 5 0 0
BITMAP
88
A8
F8
D8
50
ENDCHAR
STARTCHAR x
ENCODING 120
SWIDTH 454 0
DWIDTH 5 0
BBX 5 5 0 0
BITMAP
D8
70
20
70
D8
ENDCHAR
STARTCHAR y
ENCODING 121
SWIDTH 454 0
DWIDTH 5 0
BBX 5 7 0 -2
BITMAP
D8
50
70
70
20
60
C0
ENDCHAR
STARTCHAR z
ENCODING 122
SWIDTH 363 0
DWIDTH 4 0
BBX 3 5 0 0
BITMAP
E0
60
40
C0
E0
ENDCHAR
STARTCHAR braceleft
ENCODING 123
SWIDTH 272 0
DWIDTH 3 0
BBX 3 9 0 -2
BITMAP
60
40
40
40
80
40
40
40
60
ENDCHAR
STARTCHAR bar
ENCODING 124
SWIDTH 181 0
DWIDTH 2 0
BBX 1 9 0 -2
BITMAP
80
80
80
80
80
80
80
80
80
ENDCHAR
STARTCHAR braceright
ENCODING 125
SWIDTH 272 0
DWIDTH 3 0
BBX 3 9 0 -2
BITMAP
C0
40
40
40
20
40
40
40
C0
ENDCHAR
STARTCHAR asciitilde
ENCODING 126
SWIDTH 454 0
DWIDTH 5 0
BBX 5 2 0 1
BITMAP
68
90
ENDCHAR
STARTCHAR Adieresis
ENCODING 128
SWIDTH 545 0
DWIDTH 6 0
BBX 5 7 0 0
BITMAP
20
70
70
50
F8
D8
D8
ENDCHAR
STARTCHAR Aring
ENCODING 129
SWIDTH 545 0
DWIDTH 6 0
BBX 5 7 0 0
BITMAP
F0
C0
C0
F0
D8
D8
F0
ENDCHAR
STARTCHAR Ccedilla
ENCODING 130
SWIDTH 545 0
DWIDTH 6 0
BBX 5 7 0 0
BITMAP
F0
D8
D8
F0
D8
D8
F0
ENDCHAR
STARTCHAR Eacute
ENCODING 131
SWIDTH 454 0
DWIDTH 5 0
BBX 4 7 0 0
BITMAP
F0
C0
C0
C0
C0
C0
C0
ENDCHAR
STARTCHAR Ntilde
ENCODING 132
SWIDTH 545 0
DWIDTH 6 0
BBX 7 9 -1 -2
BITMAP
3C
2C
2C
2C
6C
4C
FE
C6
C6
ENDCHAR
STARTCHAR Odieresis
ENCODING 133
SWIDTH 454 0
DWIDTH 5 0
BBX 4 7 0 0
BITMAP
F0
C0
C0
F0
C0
C0
F0
ENDCHAR
STARTCHAR Udieresis
ENCODING 134
SWIDTH 818 0
DWIDTH 9 0
BBX 8 7 0 0
BITMAP
99
DB
5A
3C
7E
DB
DB
ENDCHAR
STARTCHAR aacute
ENCODING 135
SWIDTH 545 0
DWIDTH 6 0
BBX 5 7 0 0
BITMAP
70
98
18
30
18
98
70
ENDCHAR
STARTCHAR agrave
ENCODING 136
SWIDTH 545 0
DWIDTH 6 0
BBX 5 7 0 0
BITMAP
C8
D8
F8
F8
F8
D8
98
ENDCHAR
STARTCHAR acircumflex
ENCODING 137
SWIDTH 545 0
DWIDTH 6 0
BBX 5 9 0 0
BITMAP
70
20
C8
D8
F8
F8
F8
D8
98
ENDCHAR
STARTCHAR adieresis
ENCODING 138
SWIDTH 545 0
DWIDTH 6 0
BBX 5 7 0 0
BITMAP
C8
D8
F0
E0
F0
D8
D8
ENDCHAR
STARTCHAR atilde
ENCODING 139
SWIDTH 545 0
DWIDTH 6 0
BBX 5 7 0 0
BITMAP
78
58
58
58
58
58
98
ENDCHAR
STARTCHAR aring
ENCODING 140
SWIDTH 636 0
DWIDTH 7 0
BBX 7 7 0 0
BITMAP
C6
C6
EE
EE
D6
D6
D6
ENDCHAR
STARTCHAR ccedilla
ENCODING 141
SWIDTH 545 0
DWIDTH 6 0
BBX 5 7 0 0
BITMAP
D8
D8
D8
F8
D8
D8
D8
ENDCHAR
STARTCHAR eacute
ENCODING 142
SWIDTH 545 0
DWIDTH 6 0
BBX 5 7 0 0
BITMAP
70
D8
D8
D8
D8
D8
70
ENDCHAR
STARTCHAR egrave
ENCODING 143
SWIDTH 545 0
DWIDTH 6 0
BBX 5 7 0 0
BITMAP
F8
D8
D8
D8
D8
D8
D8
ENDCHAR
STARTCHAR ecircumflex
ENCODING 144
SWIDTH 454 0
DWIDTH 5 0
BBX 5 7 0 0
BITMAP
F0
D8
D8
F0
C0
C0
C0
ENDCHAR
STARTCHAR edieresis
ENCODING 145
SWIDTH 545 0
DWIDTH 6 0
BBX 5 7 0 0
BITMAP
70
C8
C0
C0
C0
C8
70
ENDCHAR
STARTCHAR iacute
ENCODING 146
SWIDTH 454 0
DWIDTH 5 0
BBX 4 7 0 0
BITMAP
F0
60
60
60
60
60
60
ENDCHAR
STARTCHAR igrave
ENCODING 147
SWIDTH 454 0
DWIDTH 5 0
BBX 6 7 -1 0
BITMAP
CC
48
78
30
30
30
60
ENDCHAR
STARTCHAR icircumflex
ENCODING 148
SWIDTH 727 0
DWIDTH 8 0
BBX 8 7 0 0
BITMAP
18
7E
DB
DB
DB
7E
18
ENDCHAR
STARTCHAR idieresis
ENCODING 149
SWIDTH 454 0
DWIDTH 5 0
BBX 4 7 0 0
BITMAP
90
F0
60
60
60
F0
90
ENDCHAR
STARTCHAR ntilde
ENCODING 150
SWIDTH 545 0
DWIDTH 6 0
BBX 6 9 0 -2
BITMAP
D8
D8
D8
D8
D8
D8
FC
0C
0C
ENDCHAR
STARTCHAR oacute
ENCODING 151
SWIDTH 545 0
DWIDTH 6 0
BBX 5 7 0 0
BITMAP
D8
D8
D8
78
18
18
18
ENDCHAR
STARTCHAR ograve
ENCODING 152
SWIDTH 818 0
DWIDTH 9 0
BBX 8 7 0 0
BITMAP
DB
DB
DB
DB
DB
DB
FF
ENDCHAR
STARTCHAR ocircumflex
ENCODING 153
SWIDTH 818 0
DWIDTH 9 0
BBX 9 9 0 -2
BITMAP
DB00
DB00
DB00
DB00
DB00
DB00
FF80
0180
0180
ENDCHAR
STARTCHAR odieresis
ENCODING 154
SWIDTH 636 0
DWIDTH 7 0
BBX 6 7 0 0
BITMAP
E0
60
60
78
6C
6C
78
ENDCHAR
STARTCHAR otilde
ENCODING 155
SWIDTH 727 0
DWIDTH 8 0
BBX 7 7 0 0
BITMAP
C6
C6
C6
F6
DE
DE
F6
ENDCHAR
STARTCHAR uacute
ENCODING 156
SWIDTH 545 0
DWIDTH 6 0
BBX 5 7 0 0
BITMAP
C0
C0
C0
F0
D8
D8
F0
ENDCHAR
STARTCHAR ugrave
ENCODING 157
SWIDTH 545 0
DWIDTH 6 0
BBX 5 7 0 0
BITMAP
70
98
18
78
18
98
70
ENDCHAR
STARTCHAR ucircumflex
ENCODING 158
SWIDTH 818 0
DWIDTH 9 0
BBX 8 7 0 0
BITMAP
CE
DB
DB
FB
DB
DB
CE
ENDCHAR
STARTCHAR udieresis
ENCODING 159
SWIDTH 545 0
DWIDTH 6 0
BBX 5 7 0 0
BITMAP
78
D8
D8
78
78
D8
98
ENDCHAR
STARTCHAR dagger
ENCODING 160
SWIDTH 454 0
DWIDTH 5 0
BBX 4 9 0 -2
BITMAP
60
60
F0
60
60
60
60
60
60
ENDCHAR
STARTCHAR degree
ENCODING 161
SWIDTH 272 0
DWIDTH 3 0
BBX 3 3 0 4
BITMAP
40
A0
40
ENDCHAR
STARTCHAR cent
ENCODING 162
SWIDTH 454 0
DWIDTH 5 0
BBX 4 9 0 0
BITMAP
10
10
F0
C0
C0
C0
C0
C0
C0
ENDCHAR
STARTCHAR sterling
ENCODING 163
SWIDTH 454 0
DWIDTH 5 0
BBX 4 7 0 0
BITMAP
70
D0
C0
E0
40
F0
F0
ENDCHAR
STARTCHAR section
ENCODING 164
SWIDTH 454 0
DWIDTH 5 0
BBX 4 9 0 -2
BITMAP
60
50
60
70
90
70
30
50
60
ENDCHAR
STARTCHAR bullet
ENCODING 165
SWIDTH 272 0
DWIDTH 3 0
BBX 2 2 0 2
BITMAP
C0
C0
ENDCHAR
STARTCHAR paragraph
ENCODING 166
SWIDTH 454 0
DWIDTH 5 0
BBX 5 9 0 -2
BITMAP
78
E8
E8
68
28
28
28
28
28
ENDCHAR
STARTCHAR germandbls
ENCODING 167
SWIDTH 181 0
DWIDTH 2 0
BBX 2 7 0 0
BITMAP
C0
C0
C0
C0
C0
C0
C0
ENDCHAR
STARTCHAR registered
ENCODING 168
SWIDTH 727 0
DWIDTH 8 0
BBX 8 8 0 0
BITMAP
3C
42
9D
95
99
95
42
3C
ENDCHAR
STARTCHAR copyright
ENCODING 169
SWIDTH 727 0
DWIDTH 8 0
BBX 8 8 0 0
BITMAP
3C
42
99
A1
A1
99
42
3C
ENDCHAR
STARTCHAR trademark
ENCODING 170
SWIDTH 727 0
DWIDTH 8 0
BBX 8 4 0 3
BITMAP
F1
5B
55
55
ENDCHAR
STARTCHAR acute
ENCODING 171
SWIDTH 636 0
DWIDTH 7 0
BBX 6 7 0 0
BITMAP
F8
60
78
6C
6C
6C
78
ENDCHAR
STARTCHAR dieresis
ENCODING 172
SWIDTH 454 0
DWIDTH 5 0
BBX 5 9 0 -2
BITMAP
60
F0
60
70
68
68
68
08
10
ENDCHAR
STARTCHAR notequal
ENCODING 173
SWIDTH 454 0
DWIDTH 5 0
BBX 5 5 0 0
BITMAP
10
F8
20
F8
40
ENDCHAR
STARTCHAR AE
ENCODING 174
SWIDTH 454 0
DWIDTH 5 0
BBX 4 9 0 0
BITMAP
10
20
F0
C0
C0
C0
C0
C0
C0
ENDCHAR
STARTCHAR Oslash
ENCODING 175
SWIDTH 363 0
DWIDTH 4 0
BBX 3 8 0 0
BITMAP
20
40
00
E0
C0
C0
C0
C0
ENDCHAR
STARTCHAR infinity
ENCODING 176
SWIDTH 636 0
DWIDTH 7 0
BBX 7 3 0 1
BITMAP
6C
92
6C
ENDCHAR
STARTCHAR plusminus
ENCODING 177
SWIDTH 454 0
DWIDTH 5 0
BBX 5 7 0 0
BITMAP
20
20
F8
20
20
00
F8
ENDCHAR
STARTCHAR lessequal
ENCODING 178
SWIDTH 454 0
DWIDTH 5 0
BBX 5 6 0 0
BITMAP
18
70
E0
38
08
F8
ENDCHAR
STARTCHAR greaterequal
ENCODING 179
SWIDTH 454 0
DWIDTH 5 0
BBX 5 6 0 0
BITMAP
C0
70
38
E0
80
F8
ENDCHAR
STARTCHAR yen
ENCODING 180
SWIDTH 181 0
DWIDTH 2 0
BBX 2 7 0 0
BITMAP
C0
00
C0
C0
C0
C0
C0
ENDCHAR
STARTCHAR mu
ENCODING 181
SWIDTH 454 0
DWIDTH 5 0
BBX 5 7 0 -2
BITMAP
D8
D8
D8
D8
F8
C0
C0
ENDCHAR
STARTCHAR partialdiff
ENCODING 182
SWIDTH 363 0
DWIDTH 4 0
BBX 4 7 0 0
BITMAP
30
30
F0
C0
C0
C0
C0
ENDCHAR
STARTCHAR summation
ENCODING 183
SWIDTH 454 0
DWIDTH 5 0
BBX 4 7 0 0
BITMAP
30
30
30
30
B0
B0
60
ENDCHAR
STARTCHAR product
ENCODING 184
SWIDTH 545 0
DWIDTH 6 0
BBX 5 7 0 0
BITMAP
70
C8
C0
F0
C0
C8
70
ENDCHAR
STARTCHAR pi
ENCODING 185
SWIDTH 454 0
DWIDTH 5 0
BBX 4 5 0 0
BITMAP
70
C0
E0
C0
70
ENDCHAR
STARTCHAR integral
ENCODING 186
SWIDTH 181 0
DWIDTH 2 0
BBX 4 9 -1 0
BITMAP
90
00
60
60
60
60
60
60
60
ENDCHAR
STARTCHAR ordfeminine
ENCODING 187
SWIDTH 272 0
DWIDTH 3 0
BBX 4 7 -1 0
BITMAP
90
00
60
60
60
60
60
ENDCHAR
STARTCHAR ordmasculine
ENCODING 188
SWIDTH 818 0
DWIDTH 9 0
BBX 8 7 0 0
BITMAP
78
58
58
5E
5B
5B
9E
ENDCHAR
STARTCHAR Omega
ENCODING 189
SWIDTH 636 0
DWIDTH 7 0
BBX 8 5 -1 0
BITMAP
38
58
5E
5B
9E
ENDCHAR
STARTCHAR ae
ENCODING 190
SWIDTH 818 0
DWIDTH 9 0
BBX 8 7 0 0
BITMAP
D8
D8
D8
FE
DB
DB
DE
ENDCHAR
STARTCHAR oslash
ENCODING 191
SWIDTH 636 0
DWIDTH 7 0
BBX 7 5 0 0
BITMAP
D8
D8
FC
DA
DC
ENDCHAR
STARTCHAR questiondown
ENCODING 192
SWIDTH 181 0
DWIDTH 2 0
BBX 3 9 -1 -2
BITMAP
60
00
60
60
60
60
60
60
C0
ENDCHAR
STARTCHAR exclamdown
ENCODING 193
SWIDTH 454 0
DWIDTH 5 0
BBX 4 7 0 0
BITMAP
60
D0
C0
60
30
B0
60
ENDCHAR
STARTCHAR logicalnot
ENCODING 194
SWIDTH 454 0
DWIDTH 5 0
BBX 4 3 0 1
BITMAP
F0
10
10
ENDCHAR
STARTCHAR radical
ENCODING 195
SWIDTH 454 0
DWIDTH 5 0
BBX 5 9 1 0
BITMAP
08
08
08
08
D0
50
30
20
10
ENDCHAR
STARTCHAR florin
ENCODING 196
SWIDTH 454 0
DWIDTH 5 0
BBX 4 9 0 -2
BITMAP
10
20
70
20
20
20
60
40
C0
ENDCHAR
STARTCHAR approxequal
ENCODING 197
SWIDTH 454 0
DWIDTH 5 0
BBX 5 4 0 0
BITMAP
68
90
68
90
ENDCHAR
STARTCHAR Delta
ENCODING 198
SWIDTH 545 0
DWIDTH 6 0
BBX 5 7 1 0
BITMAP
20
20
70
50
48
88
F8
ENDCHAR
STARTCHAR guillemotleft
ENCODING 199
SWIDTH 454 0
DWIDTH 5 0
BBX 4 3 0 1
BITMAP
50
A0
50
ENDCHAR
STARTCHAR guillemotright
ENCODING 200
SWIDTH 454 0
DWIDTH 5 0
BBX 4 3 0 1
BITMAP
A0
50
A0
ENDCHAR
STARTCHAR ellipsis
ENCODING 201
SWIDTH 727 0
DWIDTH 8 0
BBX 7 2 0 0
BITMAP
92
92
ENDCHAR
STARTCHAR nbspace
ENCODING 202
SWIDTH 181 0
DWIDTH 2 0
BBX 0 0 0 -2
BITMAP
ENDCHAR
STARTCHAR Agrave
ENCODING 203
SWIDTH 545 0
DWIDTH 6 0
BBX 6 7 0 0
BITMAP
F8
60
78
6C
6C
6C
6C
ENDCHAR
STARTCHAR Atilde
ENCODING 204
SWIDTH 454 0
DWIDTH 5 0
BBX 5 7 0 0
BITMAP
60
F0
60
70
68
68
68
ENDCHAR
STARTCHAR Otilde
ENCODING 205
SWIDTH 545 0
DWIDTH 6 0
BBX 5 9 0 0
BITMAP
10
20
C8
D8
F0
E0
F0
D8
D8
ENDCHAR
STARTCHAR OE
ENCODING 206
SWIDTH 454 0
DWIDTH 5 0
BBX 5 8 0 0
BITMAP
10
20
00
D8
F0
E0
F0
D8
ENDCHAR
STARTCHAR oe
ENCODING 207
SWIDTH 454 0
DWIDTH 5 0
BBX 4 5 0 0
BITMAP
70
C0
60
30
E0
ENDCHAR
STARTCHAR endash
ENCODING 208
SWIDTH 454 0
DWIDTH 5 0
BBX 4 1 0 2
BITMAP
F0
ENDCHAR
STARTCHAR emdash
ENCODING 209
SWIDTH 727 0
DWIDTH 8 0
BBX 9 1 -1 2
BITMAP
FF80
ENDCHAR
STARTCHAR quotedblleft
ENCODING 210
SWIDTH 363 0
DWIDTH 4 0
BBX 4 3 0 5
BITMAP
50
A0
F0
ENDCHAR
STARTCHAR quotedblright
ENCODING 211
SWIDTH 363 0
DWIDTH 4 0
BBX 4 3 0 5
BITMAP
F0
50
A0
ENDCHAR
STARTCHAR quoteleft
ENCODING 212
SWIDTH 181 0
DWIDTH 2 0
BBX 2 3 0 5
BITMAP
40
80
C0
ENDCHAR
STARTCHAR quoteright
ENCODING 213
SWIDTH 181 0
DWIDTH 2 0
BBX 2 3 0 5
BITMAP
C0
40
80
ENDCHAR
STARTCHAR divide
ENCODING 214
SWIDTH 454 0
DWIDTH 5 0
BBX 5 5 0 0
BITMAP
20
00
F8
00
20
ENDCHAR
STARTCHAR lozenge
ENCODING 215
SWIDTH 363 0
DWIDTH 4 0
BBX 4 3 0 -2
BITMAP
F0
50
A0
ENDCHAR
STARTCHAR ydieresis
ENCODING 216
SWIDTH 454 0
DWIDTH 5 0
BBX 6 9 -1 0
BITMAP
38
10
CC
48
78
30
30
30
60
ENDCHAR
STARTCHAR Ydieresis
ENCODING 217
SWIDTH 454 0
DWIDTH 5 0
BBX 5 9 0 -2
BITMAP
70
20
D8
50
70
70
20
60
C0
ENDCHAR
STARTCHAR fraction
ENCODING 218
SWIDTH 545 0
DWIDTH 6 0
BBX 5 9 0 -2
BITMAP
D8
D8
D8
D8
D8
D8
F8
20
20
ENDCHAR
STARTCHAR currency
ENCODING 219
SWIDTH 454 0
DWIDTH 5 0
BBX 5 6 0 -1
BITMAP
D8
D8
D8
D8
F8
20
ENDCHAR
STARTCHAR guilsinglleft
ENCODING 220
SWIDTH 909 0
DWIDTH 10 0
BBX 9 7 0 0
BITMAP
9800
D800
FB80
FA80
DB80
D800
CB80
ENDCHAR
STARTCHAR guilsinglright
ENCODING 221
SWIDTH 454 0
DWIDTH 5 0
BBX 4 9 0 0
BITMAP
50
00
F0
C0
C0
F0
C0
C0
F0
ENDCHAR
STARTCHAR fi
ENCODING 222
SWIDTH 454 0
DWIDTH 5 0
BBX 5 7 0 0
BITMAP
50
00
70
D8
F8
C0
70
ENDCHAR
STARTCHAR fl
ENCODING 223
SWIDTH 454 0
DWIDTH 5 0
BBX 4 5 0 0
BITMAP
70
B0
70
70
B0
ENDCHAR
STARTCHAR daggerdbl
ENCODING 224
SWIDTH 454 0
DWIDTH 5 0
BBX 5 5 0 0
BITMAP
70
18
78
D8
78
ENDCHAR
STARTCHAR periodcentered
ENCODING 225
SWIDTH 454 0
DWIDTH 5 0
BBX 5 8 0 0
BITMAP
18
70
C0
F0
D8
D8
D8
70
ENDCHAR
STARTCHAR quotesinglbase
ENCODING 226
SWIDTH 454 0
DWIDTH 5 0
BBX 5 5 0 0
BITMAP
F0
D8
F0
D8
F0
ENDCHAR
STARTCHAR quotedblbase
ENCODING 227
SWIDTH 363 0
DWIDTH 4 0
BBX 3 5 0 0
BITMAP
E0
C0
C0
C0
C0
ENDCHAR
STARTCHAR perthousand
ENCODING 228
SWIDTH 454 0
DWIDTH 5 0
BBX 6 6 -1 -1
BITMAP
38
58
58
58
FC
CC
ENDCHAR
STARTCHAR Acircumflex
ENCODING 229
SWIDTH 454 0
DWIDTH 5 0
BBX 5 5 0 0
BITMAP
70
D8
F8
C0
70
ENDCHAR
STARTCHAR Ecircumflex
ENCODING 230
SWIDTH 636 0
DWIDTH 7 0
BBX 7 5 0 0
BITMAP
D6
7C
38
7C
D6
ENDCHAR
STARTCHAR Aacute
ENCODING 231
SWIDTH 454 0
DWIDTH 5 0
BBX 4 5 0 0
BITMAP
E0
30
60
30
E0
ENDCHAR
STARTCHAR Edieresis
ENCODING 232
SWIDTH 454 0
DWIDTH 5 0
BBX 5 5 0 0
BITMAP
C8
D8
F8
D8
98
ENDCHAR
STARTCHAR Egrave
ENCODING 233
SWIDTH 454 0
DWIDTH 5 0
BBX 5 7 0 0
BITMAP
70
20
C8
D8
F8
D8
98
ENDCHAR
STARTCHAR Iacute
ENCODING 234
SWIDTH 454 0
DWIDTH 5 0
BBX 5 5 0 0
BITMAP
D8
F0
E0
F0
D8
ENDCHAR
STARTCHAR Icircumflex
ENCODING 235
SWIDTH 454 0
DWIDTH 5 0
BBX 5 5 -1 0
BITMAP
78
58
58
58
98
ENDCHAR
STARTCHAR Idieresis
ENCODING 236
SWIDTH 545 0
DWIDTH 6 0
BBX 5 5 0 0
BITMAP
D8
D8
D8
F8
A8
ENDCHAR
STARTCHAR Igrave
ENCODING 237
SWIDTH 454 0
DWIDTH 5 0
BBX 5 5 0 0
BITMAP
D8
D8
F8
D8
D8
ENDCHAR
STARTCHAR Oacute
ENCODING 238
SWIDTH 454 0
DWIDTH 5 0
BBX 5 5 0 0
BITMAP
70
D8
D8
D8
70
ENDCHAR
STARTCHAR Ocircumflex
ENCODING 239
SWIDTH 454 0
DWIDTH 5 0
BBX 5 5 0 0
BITMAP
F8
D8
D8
D8
D8
ENDCHAR
STARTCHAR apple
ENCODING 240
SWIDTH 454 0
DWIDTH 5 0
BBX 5 7 0 -2
BITMAP
F0
D8
D8
D8
F0
C0
C0
ENDCHAR
STARTCHAR Ograve
ENCODING 241
SWIDTH 454 0
DWIDTH 5 0
BBX 4 5 0 0
BITMAP
60
D0
C0
D0
60
ENDCHAR
STARTCHAR Uacute
ENCODING 242
SWIDTH 454 0
DWIDTH 5 0
BBX 4 5 0 0
BITMAP
F0
60
60
60
60
ENDCHAR
STARTCHAR Ucircumflex
ENCODING 243
SWIDTH 454 0
DWIDTH 5 0
BBX 5 7 0 -2
BITMAP
D8
50
70
70
20
60
C0
ENDCHAR
STARTCHAR Ugrave
ENCODING 244
SWIDTH 636 0
DWIDTH 7 0
BBX 7 9 0 -2
BITMAP
10
7C
D6
D6
D6
D6
7C
10
10
ENDCHAR
STARTCHAR dotlessi
ENCODING 245
SWIDTH 454 0
DWIDTH 5 0
BBX 5 5 0 0
BITMAP
D8
70
20
70
D8
ENDCHAR
STARTCHAR circumflex
ENCODING 246
SWIDTH 454 0
DWIDTH 5 0
BBX 6 6 0 -1
BITMAP
D8
D8
D8
D8
FC
0C
ENDCHAR
STARTCHAR tilde
ENCODING 247
SWIDTH 454 0
DWIDTH 5 0
BBX 5 5 0 0
BITMAP
D8
D8
78
18
18
ENDCHAR
STARTCHAR macron
ENCODING 248
SWIDTH 636 0
DWIDTH 7 0
BBX 7 5 0 0
BITMAP
D6
D6
D6
D6
FE
ENDCHAR
STARTCHAR breve
ENCODING 249
SWIDTH 636 0
DWIDTH 7 0
BBX 8 6 0 -1
BITMAP
D6
D6
D6
D6
FF
03
ENDCHAR
STARTCHAR dotaccent
ENCODING 250
SWIDTH 454 0
DWIDTH 5 0
BBX 5 5 0 0
BITMAP
E0
60
70
68
70
ENDCHAR
STARTCHAR ring
ENCODING 251
SWIDTH 636 0
DWIDTH 7 0
BBX 6 5 0 0
BITMAP
CC
CC
EC
DC
EC
ENDCHAR
STARTCHAR cedilla
ENCODING 252
SWIDTH 454 0
DWIDTH 5 0
BBX 5 5 0 0
BITMAP
C0
C0
F0
D8
F0
ENDCHAR
STARTCHAR hungarumlaut
ENCODING 253
SWIDTH 454 0
DWIDTH 5 0
BBX 4 5 0 0
BITMAP
E0
30
70
30
E0
ENDCHAR
STARTCHAR ogonek
ENCODING 254
SWIDTH 636 0
DWIDTH 7 0
BBX 7 6 0 0
BITMAP
DC
F6
F6
F6
F6
DC
ENDCHAR
STARTCHAR caron
ENCODING 255
SWIDTH 545 0
DWIDTH 6 0
BBX 6 7 0 0
BITMAP
38
64
F8
60
F8
64
38
ENDCHAR
ENDFONT
